<svg width="750" height="750" viewBox="0 0 750 750" fill="none" xmlns="http://www.w3.org/2000/svg">
<rect width="750" height="750" fill="#E5E5E5"/>
<rect width="750" height="750" fill="#F9EF37"/>
<path d="M339.63 678C356.866 678 363.152 660.052 363.152 646.093C363.152 632.133 369.413 611.781 378.206 613.686C387 615.591 392 633.186 392 646.093C392 658.556 392.524 678 406.842 678C421.16 678 424.821 656.562 424.821 642.603C424.821 628.974 423.5 611.46 423.5 601C423.5 590.541 422.34 554.763 424.821 554.264C427.302 553.766 436.037 563.342 449.061 574.3C462.085 585.258 470.486 591.367 478.208 582.277C485.931 573.187 466.665 555.117 458.777 547.378C449.629 538.404 435.385 523.011 424.821 515.47C414.258 507.93 398.56 505.054 378.206 505.001C357.661 504.947 336.33 512.485 327.582 518.96C318.833 525.435 302.775 539.9 293.607 547.378C284.439 554.856 265.158 572.287 276.446 586.764C282.527 594.564 297.035 583.218 308.139 574.533L308.437 574.3C319.792 565.42 331.79 553.268 334.891 554.264C337.992 555.261 334.173 588.525 333 597C331.827 605.476 327.582 634.626 327.582 642.603C327.582 650.58 322.394 678 339.63 678Z" fill="#70B72C" stroke="black" stroke-width="5"/>
<path d="M468.14 586.792C468.025 585.971 467.266 585.4 466.446 585.515C465.625 585.63 465.054 586.388 465.169 587.209L468.14 586.792ZM466.432 597.047C466.432 597.875 467.104 598.547 467.932 598.547C468.76 598.547 469.432 597.875 469.432 597.047H466.432ZM474.694 585.458C474.051 584.936 473.106 585.035 472.584 585.678C472.062 586.321 472.161 587.266 472.805 587.788L474.694 585.458ZM481.587 594.955C482.374 595.213 483.221 594.784 483.479 593.997C483.737 593.21 483.308 592.362 482.521 592.104L481.587 594.955ZM480.327 575.499C479.513 575.342 478.727 575.876 478.571 576.689C478.415 577.503 478.948 578.289 479.762 578.445L480.327 575.499ZM490.904 579.1C491.732 579.1 492.404 578.428 492.404 577.6C492.404 576.771 491.732 576.1 490.904 576.1V579.1ZM478.093 567.565C477.265 567.565 476.593 568.236 476.593 569.065C476.593 569.893 477.265 570.565 478.093 570.565V567.565ZM488.565 567.132C489.232 566.641 489.374 565.702 488.883 565.035C488.391 564.368 487.452 564.226 486.785 564.718L488.565 567.132ZM258.276 576.241C257.462 576.089 256.678 576.625 256.525 577.44C256.373 578.254 256.909 579.038 257.724 579.19L258.276 576.241ZM274.609 580.472C275.437 580.472 276.109 579.8 276.109 578.972C276.109 578.143 275.437 577.472 274.609 577.472V580.472ZM266.258 590.695C265.514 591.061 265.208 591.96 265.573 592.703C265.939 593.447 266.837 593.753 267.581 593.388L266.258 590.695ZM278.441 587.737C279.184 587.371 279.491 586.472 279.125 585.729C278.76 584.985 277.861 584.679 277.117 585.044L278.441 587.737ZM286.28 588.297C286.434 587.483 285.899 586.699 285.085 586.544C284.271 586.39 283.486 586.925 283.332 587.739L286.28 588.297ZM281.389 599.949C281.389 600.777 282.061 601.449 282.889 601.449C283.718 601.449 284.389 600.777 284.389 599.949H281.389ZM265.037 565.957C264.296 565.585 263.395 565.884 263.023 566.625C262.652 567.365 262.951 568.267 263.692 568.638L265.037 565.957ZM275.863 573.193C276.691 573.193 277.363 572.521 277.363 571.693C277.363 570.864 276.691 570.193 275.863 570.193V573.193ZM465.169 587.209C465.668 590.764 466.432 593.806 466.432 597.047H469.432C469.432 593.533 468.582 589.942 468.14 586.792L465.169 587.209ZM472.805 587.788C474.015 588.769 475.115 590.064 476.594 591.525C477.965 592.879 479.612 594.308 481.587 594.955L482.521 592.104C481.257 591.69 480.033 590.705 478.702 589.39C477.479 588.182 476.045 586.554 474.694 585.458L472.805 587.788ZM479.762 578.445C480.964 578.675 481.968 578.958 483.225 579.238C484.415 579.504 485.688 579.727 487.071 579.727V576.727C486.008 576.727 484.982 576.556 483.878 576.31C482.84 576.079 481.553 575.734 480.327 575.499L479.762 578.445ZM487.071 579.727C487.967 579.727 488.753 579.517 489.341 579.367C489.969 579.206 490.415 579.1 490.904 579.1V576.1C489.987 576.1 489.195 576.307 488.597 576.46C487.959 576.624 487.531 576.727 487.071 576.727V579.727ZM478.093 570.565C480.192 570.565 481.969 570.349 483.668 569.79C485.368 569.231 486.908 568.354 488.565 567.132L486.785 564.718C485.294 565.817 484.038 566.51 482.731 566.94C481.423 567.371 479.984 567.565 478.093 567.565V570.565ZM257.724 579.19C263.442 580.261 268.912 580.472 274.609 580.472V577.472C268.978 577.472 263.724 577.261 258.276 576.241L257.724 579.19ZM267.581 593.388C269.442 592.473 271.296 591.482 273.107 590.514C274.926 589.541 276.701 588.592 278.441 587.737L277.117 585.044C275.323 585.926 273.502 586.901 271.692 587.868C269.874 588.841 268.065 589.807 266.258 590.695L267.581 593.388ZM283.332 587.739C283.162 588.636 282.959 589.589 282.746 590.591C282.535 591.587 282.314 592.629 282.114 593.675C281.717 595.757 281.389 597.935 281.389 599.949H284.389C284.389 598.224 284.673 596.27 285.061 594.237C285.254 593.227 285.468 592.215 285.681 591.215C285.892 590.221 286.102 589.233 286.28 588.297L283.332 587.739ZM263.692 568.638C265.239 569.414 267.304 570.596 269.29 571.492C271.32 572.409 273.591 573.193 275.863 573.193V570.193C274.234 570.193 272.431 569.619 270.525 568.758C268.575 567.878 266.841 566.862 265.037 565.957L263.692 568.638Z" fill="black"/>
<path d="M325.66 666.981C326.489 666.981 327.16 666.309 327.16 665.481C327.16 664.653 326.489 663.981 325.66 663.981V666.981ZM312.788 665.858C312.418 666.599 312.718 667.5 313.459 667.871C314.2 668.241 315.101 667.941 315.472 667.2L312.788 665.858ZM328.767 673.27C329.596 673.29 330.284 672.636 330.305 671.808C330.325 670.98 329.671 670.291 328.842 670.271L328.767 673.27ZM317.491 671.57C316.802 672.03 316.615 672.961 317.075 673.651C317.534 674.34 318.466 674.526 319.155 674.067L317.491 671.57ZM333.921 677.145C334.574 676.635 334.69 675.692 334.18 675.04C333.67 674.387 332.727 674.271 332.074 674.781L333.921 677.145ZM326.415 680.533C326.045 681.274 326.345 682.175 327.086 682.546C327.827 682.916 328.728 682.616 329.098 681.875L326.415 680.533ZM340.787 678.06C340.787 677.231 340.115 676.56 339.287 676.56C338.459 676.56 337.787 677.231 337.787 678.06H340.787ZM337.787 684.349C337.787 685.177 338.459 685.849 339.287 685.849C340.115 685.849 340.787 685.177 340.787 684.349H337.787ZM407.585 679.274C407.098 678.604 406.16 678.456 405.49 678.943C404.82 679.43 404.672 680.368 405.159 681.038L407.585 679.274ZM408.175 686.068C408.546 686.809 409.447 687.109 410.188 686.739C410.929 686.368 411.229 685.467 410.858 684.726L408.175 686.068ZM414.722 673.806C414.136 673.22 413.187 673.22 412.601 673.806C412.015 674.392 412.015 675.342 412.601 675.927L414.722 673.806ZM418.89 682.217C419.476 682.802 420.425 682.802 421.011 682.217C421.597 681.631 421.597 680.681 421.011 680.095L418.89 682.217ZM421.181 667.702C420.671 667.049 419.728 666.934 419.075 667.444C418.423 667.954 418.307 668.896 418.817 669.549L421.181 667.702ZM422.692 674.915C422.692 675.743 423.363 676.415 424.192 676.415C425.02 676.415 425.692 675.743 425.692 674.915H422.692ZM422.133 662.933C421.305 662.913 420.616 663.567 420.596 664.395C420.575 665.224 421.23 665.912 422.058 665.932L422.133 662.933ZM427.714 666.823C428.455 667.193 429.356 666.893 429.726 666.152C430.097 665.411 429.796 664.51 429.055 664.139L427.714 666.823ZM325.66 663.981C325.248 663.981 324.452 663.912 323.311 663.827C322.223 663.745 320.91 663.658 319.611 663.646C318.327 663.633 316.976 663.691 315.835 663.93C315.263 664.05 314.68 664.228 314.164 664.505C313.647 664.784 313.113 665.209 312.788 665.858L315.472 667.2C315.434 667.276 315.414 667.239 315.586 667.147C315.759 667.054 316.038 666.953 316.449 666.867C317.273 666.694 318.369 666.634 319.581 666.645C320.778 666.657 322.011 666.738 323.088 666.818C324.112 666.895 325.1 666.981 325.66 666.981V663.981ZM328.842 670.271C327.596 670.24 326.604 670.121 325.731 669.998C324.893 669.88 324.033 669.735 323.229 669.694C321.406 669.602 319.799 670.032 317.491 671.57L319.155 674.067C321.057 672.798 322.039 672.638 323.078 672.69C323.705 672.722 324.345 672.832 325.312 672.969C326.244 673.1 327.362 673.235 328.767 673.27L328.842 670.271ZM332.074 674.781C331.139 675.512 330.024 676.341 329.036 677.242C328.037 678.154 327.068 679.227 326.415 680.533L329.098 681.875C329.52 681.032 330.194 680.247 331.059 679.458C331.935 678.658 332.903 677.941 333.921 677.145L332.074 674.781ZM337.787 678.06V684.349H340.787V678.06H337.787ZM405.159 681.038C406.373 682.708 407.264 684.247 408.175 686.068L410.858 684.726C409.892 682.793 408.918 681.106 407.585 679.274L405.159 681.038ZM412.601 675.927L418.89 682.217L421.011 680.095L414.722 673.806L412.601 675.927ZM418.817 669.549C419.273 670.133 419.788 670.668 420.257 671.146C420.744 671.643 421.174 672.07 421.558 672.516C422.32 673.398 422.692 674.116 422.692 674.915H425.692C425.692 673.045 424.765 671.64 423.83 670.556C423.365 670.018 422.847 669.502 422.398 669.045C421.931 668.569 421.523 668.14 421.181 667.702L418.817 669.549ZM422.058 665.932C424.317 665.989 426.13 666.031 427.714 666.823L429.055 664.139C426.76 662.992 424.22 662.986 422.133 662.933L422.058 665.932Z" fill="black"/>
<path d="M322.605 611.5C327.692 603.5 331.252 593.5 331.252 593.5V584.5H374.998H418.745C418.745 584.5 434.087 612 432.988 615C431.889 618 417.989 620.049 408.062 622C397.673 624.043 381.103 625 381.103 625L378.559 618L374.998 625C374.998 625 357.703 622 348.039 622C338.374 622 320.379 615 322.605 611.5Z" fill="#DE4450" stroke="black" stroke-width="5"/>
<path d="M342.952 546.5C348.064 532.745 342.952 509 342.952 509L355.16 505.5C355.16 505.5 366.483 528.605 381.103 528C395.207 527.417 402.976 505.5 402.976 505.5L415.693 509C415.693 509 412.133 534.224 415.693 546.5C418.11 554.835 424.34 563.5 424.34 563.5V592.5C424.34 592.5 394.466 599.711 374.999 599.5C356.906 599.305 329.218 592.5 329.218 592.5L332.779 563.5C332.779 563.5 340.263 553.735 342.952 546.5Z" fill="white" stroke="black" stroke-width="5"/>
<path d="M179.219 363C202.075 396.043 241.719 416.5 241.719 416.5V264.5C241.719 264.5 229.838 240.441 222.719 229.5C209.788 209.625 209.263 186.202 187.719 178.5C164.855 170.325 137.567 194.549 132.719 213.5C123.766 248.5 151.343 322.698 179.219 363Z" fill="#70B72C"/>
<path d="M512.719 289L489.719 461.5C489.719 461.5 536.029 444.606 573.719 402C585.219 389 626.219 322.5 614.219 264.5C609.824 243.259 582.719 222 559.219 238C541.823 249.844 543.675 264.38 527.219 277.5C519.639 283.543 512.719 289 512.719 289Z" fill="#70B72C"/>
<path d="M179.219 363C202.075 396.043 241.719 416.5 241.719 416.5V264.5C241.719 264.5 229.838 240.441 222.719 229.5C209.788 209.625 209.263 186.202 187.719 178.5C164.855 170.325 137.567 194.549 132.719 213.5C123.766 248.5 151.343 322.698 179.219 363Z" stroke="black" stroke-width="5"/>
<path d="M512.719 289L489.719 461.5C489.719 461.5 536.029 444.606 573.719 402C585.219 389 626.219 322.5 614.219 264.5C609.824 243.259 582.719 222 559.219 238C541.823 249.844 543.675 264.38 527.219 277.5C519.639 283.543 512.719 289 512.719 289Z" stroke="black" stroke-width="5"/>
<path d="M385.177 121.769H357.278C357.278 121.769 295.202 96.1365 310.547 71.9282C325.891 47.7199 357.278 89.0164 357.278 89.0164C357.278 89.0164 339.841 41.3118 368.437 36.3278C397.034 31.3437 379.597 84.7443 385.177 89.0164C390.756 93.2885 416.563 54.84 434.697 71.9282C452.832 89.0164 385.177 121.769 385.177 121.769Z" fill="#F3477B" stroke="black" stroke-width="5"/>
<path d="M229.719 376C235.775 422.447 259.915 480 271.719 490.5C283.524 501 332.523 514.257 376.219 514.5C421.26 514.75 464.719 504.008 475.219 494C499.719 470.648 514.305 403.5 517.219 376C520.133 348.5 525.531 300.281 514.219 254C502.876 207.593 484.749 165.235 457.719 145.5C430.689 125.765 409.687 119.119 376.219 119C342.38 118.879 321.157 125.694 293.719 145.5C254.763 173.621 240.7 212 232.719 244C221.19 290.228 223.559 328.756 229.719 376Z" fill="#70B72C" stroke="black" stroke-width="5"/>
<path d="M577.74 237.684C577.838 238.507 578.584 239.094 579.407 238.996C580.23 238.898 580.817 238.151 580.719 237.329L577.74 237.684ZM582.506 220.482C582.813 219.713 582.439 218.84 581.67 218.533C580.901 218.225 580.028 218.599 579.72 219.368L582.506 220.482ZM590.287 243.158C590.287 243.986 590.959 244.658 591.787 244.658C592.616 244.658 593.287 243.986 593.287 243.158H590.287ZM600.745 228.562C601.007 227.777 600.582 226.927 599.797 226.665C599.011 226.403 598.161 226.828 597.899 227.614L600.745 228.562ZM602.045 252.128C601.45 252.705 601.436 253.655 602.013 254.249C602.59 254.844 603.54 254.858 604.134 254.281L602.045 252.128ZM613.136 247.5L611.965 246.563L613.136 247.5ZM613.807 241.988C614.548 241.617 614.848 240.716 614.478 239.975C614.107 239.234 613.206 238.934 612.465 239.305L613.807 241.988ZM159.74 188.643C160.149 189.363 161.065 189.615 161.785 189.206C162.505 188.797 162.757 187.881 162.348 187.161L159.74 188.643ZM158.732 167.545C158.933 166.741 158.444 165.927 157.64 165.726C156.837 165.525 156.022 166.014 155.821 166.817L158.732 167.545ZM173.752 181.237C173.192 181.848 173.234 182.797 173.844 183.357C174.455 183.917 175.404 183.875 175.964 183.265L173.752 181.237ZM181.254 164.692C180.919 163.934 180.034 163.591 179.276 163.925C178.518 164.259 178.174 165.145 178.509 165.903L181.254 164.692ZM142.722 202.602C143.157 203.307 144.081 203.525 144.786 203.09C145.491 202.655 145.71 201.73 145.274 201.025L142.722 202.602ZM139.03 188.728C139.433 188.004 139.172 187.091 138.447 186.689C137.723 186.286 136.81 186.547 136.408 187.271L139.03 188.728ZM580.719 237.329C579.962 230.992 580.237 226.153 582.506 220.482L579.72 219.368C577.214 225.634 576.943 231.008 577.74 237.684L580.719 237.329ZM593.287 243.158C593.287 239.524 594.516 237.467 596.029 235.587C597.514 233.741 599.707 231.677 600.745 228.562L597.899 227.614C597.086 230.053 595.511 231.445 593.692 233.706C591.9 235.933 590.287 238.634 590.287 243.158H593.287ZM604.134 254.281C605.333 253.117 606.872 252.58 608.786 251.875C610.589 251.211 612.75 250.384 614.307 248.437L611.965 246.563C610.99 247.781 609.6 248.378 607.749 249.06C606.008 249.702 603.791 250.434 602.045 252.128L604.134 254.281ZM614.307 248.437C614.67 247.984 614.807 247.469 614.86 247.058C614.915 246.641 614.898 246.216 614.859 245.835C614.782 245.086 614.589 244.236 614.442 243.549C614.28 242.792 614.173 242.221 614.164 241.812C614.153 241.28 614.309 241.737 613.807 241.988L612.465 239.305C611.232 239.921 611.152 241.256 611.165 241.876C611.18 242.619 611.358 243.473 611.508 244.176C611.673 244.95 611.819 245.596 611.874 246.139C611.901 246.403 611.898 246.573 611.885 246.67C611.872 246.774 611.861 246.692 611.965 246.563L614.307 248.437ZM162.348 187.161C158.555 180.485 156.941 174.71 158.732 167.545L155.821 166.817C153.779 174.988 155.721 181.571 159.74 188.643L162.348 187.161ZM175.964 183.265C177.582 181.499 180.03 179.21 181.457 176.276C182.959 173.188 183.344 169.433 181.254 164.692L178.509 165.903C180.256 169.864 179.862 172.696 178.759 174.964C177.581 177.387 175.599 179.223 173.752 181.237L175.964 183.265ZM145.274 201.025C144.437 199.669 143.18 198.681 142.061 197.875C140.858 197.01 139.847 196.371 139.019 195.575C138.247 194.833 137.802 194.101 137.706 193.189C137.606 192.234 137.86 190.834 139.03 188.728L136.408 187.271C135.078 189.666 134.533 191.701 134.723 193.503C134.917 195.347 135.853 196.693 136.941 197.739C137.973 198.73 139.302 199.586 140.309 200.31C141.399 201.095 142.221 201.791 142.722 202.602L145.274 201.025Z" fill="black"/>
<path d="M303 362V391.5M324 362V382.5M294.5 362V387.5M313.5 357V382.5" stroke="black" stroke-width="5" stroke-linejoin="round"/>
<path d="M394.43 492.679C373.28 490.677 377.812 448.908 377.812 448.908H415.58C415.58 448.908 415.58 494.682 394.43 492.679Z" fill="#D14434" stroke="black" stroke-width="5" stroke-linecap="round"/>
<path d="M409.724 473.212C409.724 473.212 392.065 466.23 381.258 473.212C381.258 473.212 383.207 492.648 395.187 491.502C407.168 490.356 409.724 473.212 409.724 473.212Z" fill="#FC9792"/>
<path d="M314.416 441.21C314.416 441.21 334.058 454.828 326.024 465.206C317.989 475.583 300.798 460.852 300.798 460.852C300.798 460.852 288.46 452.633 282.655 447.166C276.061 440.955 268.385 431.417 273.137 425.077C277.962 418.641 289.557 423.568 297.317 428.477C303.929 432.66 314.416 441.21 314.416 441.21Z" fill="#FABC1D"/>
<path d="M300.798 460.852C300.798 460.852 317.989 475.583 326.024 465.206C334.058 454.828 314.416 441.21 314.416 441.21M300.798 460.852L314.416 441.21M300.798 460.852C300.798 460.852 288.46 452.633 282.655 447.166M314.416 441.21C314.416 441.21 303.929 432.66 297.317 428.477M282.655 447.166C276.061 440.955 268.385 431.417 273.137 425.077C277.962 418.641 289.557 423.568 297.317 428.477M282.655 447.166L297.317 428.477" stroke="black" stroke-width="5"/>
<path d="M292.599 445.71L292.622 446.21" stroke="black" stroke-width="3" stroke-linecap="round"/>
<path d="M298.273 438.444L298.296 438.943" stroke="black" stroke-width="3" stroke-linecap="round"/>
<path d="M298.775 449.432L298.798 449.932" stroke="black" stroke-width="3" stroke-linecap="round"/>
<path d="M304.495 443.165L304.518 443.665" stroke="black" stroke-width="3" stroke-linecap="round"/>
<path d="M330 504.511L329.932 428.401L358.405 429.324L358.116 468.49L357.829 507.398L330 504.511Z" fill="#47A9F7" stroke="black" stroke-width="4" stroke-linejoin="round"/>
<path d="M441.056 500.839L441.087 429.305L469.576 430.229L469.55 491.057C469.548 491.058 469.547 491.059 469.546 491.06C469.138 491.417 468.424 491.979 467.283 492.688C464.999 494.108 461.018 496.113 454.389 498.253C451.546 499.172 447.693 499.884 444.477 500.369C443.174 500.565 441.995 500.722 441.056 500.839Z" fill="#47A9F7" stroke="black" stroke-width="4" stroke-linejoin="round"/>
<path d="M342.579 392.946C308.378 392.946 296.719 400.767 296.719 407.248C296.719 413.729 297.497 428.701 342.579 428.701C387.661 428.701 387.661 411.234 387.661 407.248C387.661 403.262 376.779 392.946 342.579 392.946Z" fill="white" stroke="black" stroke-width="5"/>
<path d="M360.456 411.234C360.456 424.708 353.322 430.697 344.522 430.697C335.722 430.697 328.588 421.983 328.588 411.234C328.588 400.485 335.722 391.771 344.522 391.771C353.322 391.771 360.456 391.771 360.456 411.234Z" fill="black"/>
<path d="M455.151 392.946C420.95 392.946 409.291 400.767 409.291 407.248C409.291 413.729 410.068 428.701 455.151 428.701C500.233 428.701 500.233 411.234 500.233 407.248C500.233 403.262 489.351 392.946 455.151 392.946Z" fill="white" stroke="black" stroke-width="5"/>
<path d="M473.028 411.234C473.028 424.708 465.894 430.697 457.094 430.697C448.294 430.697 441.16 421.983 441.16 411.234C441.16 400.485 448.294 391.771 457.094 391.771C465.894 391.771 473.028 391.771 473.028 411.234Z" fill="black"/>
</svg>
